<?xml version="1.0" standalone="no"?>
<!DOCTYPE svg PUBLIC "-//W3C//DTD SVG 20010904//EN"
 "http://www.w3.org/TR/2001/REC-SVG-20010904/DTD/svg10.dtd">
<svg version="1.0" xmlns="http://www.w3.org/2000/svg"
 width="512.000000pt" height="512.000000pt" viewBox="0 0 512.000000 512.000000"
 preserveAspectRatio="xMidYMid meet">

<g transform="translate(0.000000,512.000000) scale(0.100000,-0.100000)"
fill="#000000" stroke="none">
<path d="M1810 5111 c-85 -26 -151 -93 -175 -175 -14 -47 -16 -103 -13 -353 3
-285 4 -300 25 -339 29 -55 78 -103 128 -125 36 -17 72 -19 368 -19 l328 0 -3
-102 -3 -101 -493 -165 c-459 -153 -493 -166 -507 -192 -8 -16 -15 -38 -15
-48 0 -51 30 -64 533 -231 l487 -163 0 -99 0 -99 -187 0 c-104 0 -205 -5 -225
-10 -57 -16 -119 -69 -150 -129 -23 -44 -28 -66 -28 -127 l0 -74 -255 0 -255
0 0 33 c0 104 -37 197 -99 249 -69 59 -71 59 -601 56 -443 -3 -488 -5 -521
-21 -47 -24 -95 -71 -122 -121 -21 -39 -22 -54 -22 -281 0 -226 1 -242 21
-280 30 -56 71 -94 129 -121 47 -22 61 -24 248 -24 l197 0 0 -430 0 -430 -27
-5 c-228 -49 -410 -220 -468 -440 -19 -76 -19 -224 0 -299 41 -156 164 -309
306 -379 179 -88 356 -88 539 0 146 70 277 235 310 391 l12 52 349 0 349 0 5
-28 c57 -266 276 -458 546 -478 174 -13 332 48 460 175 91 92 139 182 164 310
51 253 -81 523 -314 639 -104 53 -170 66 -301 60 -166 -8 -276 -57 -396 -177
-69 -70 -133 -184 -154 -279 l-12 -52 -345 2 -345 3 -29 87 c-34 106 -83 184
-160 259 -65 62 -179 125 -261 143 l-53 13 -3 431 -2 432 197 0 c178 0 203 3
243 21 104 47 160 147 160 286 l0 33 255 0 255 0 0 -73 c0 -123 62 -215 169
-252 66 -22 956 -22 1022 0 107 37 169 129 169 252 l0 73 255 0 255 0 0 -33
c0 -139 56 -239 160 -286 40 -18 65 -21 243 -21 l197 0 0 -430 0 -429 -37 -10
c-21 -6 -43 -11 -49 -11 -27 0 -173 -83 -220 -124 -28 -25 -72 -76 -98 -113
-240 -351 -45 -830 374 -919 302 -64 616 131 694 433 20 76 20 221 1 293 -59
224 -221 382 -452 440 l-43 11 0 429 0 430 198 0 c186 0 200 2 247 24 58 27
99 65 129 121 20 38 21 54 21 280 0 227 -1 242 -22 281 -27 50 -75 97 -122
121 -30 15 -68 18 -243 21 l-208 3 0 315 0 315 -25 24 -24 25 -428 0 -428 0
-482 161 -483 161 0 99 0 99 328 0 c295 0 331 2 367 19 50 22 99 70 128 125
21 39 22 54 25 339 3 250 1 306 -13 353 -18 63 -69 125 -129 157 -41 22 -42
22 -781 24 -407 1 -751 -2 -765 -6z m1492 -189 c23 -22 23 -24 23 -311 l0
-289 -24 -26 -24 -26 -717 0 -717 0 -24 26 -24 26 -3 276 c-2 298 0 315 48
339 20 10 178 12 732 10 l707 -2 23 -23z m-370 -1294 c203 -68 368 -125 368
-128 0 -3 -166 -61 -370 -128 l-370 -124 -370 124 c-203 67 -370 125 -370 128
0 5 715 248 735 249 5 1 175 -54 377 -121z m1418 -473 l0 -255 -197 0 c-178 0
-203 -3 -243 -21 -104 -47 -160 -147 -160 -286 l0 -33 -255 0 -255 0 0 74 c0
61 -5 83 -28 127 -31 60 -93 113 -150 129 -20 5 -121 10 -224 10 l-188 0 0 99
0 99 463 155 462 155 388 1 387 1 0 -255z m-3185 -450 c25 -24 25 -25 25 -230
0 -205 0 -206 -25 -230 l-24 -25 -456 0 -457 0 -29 29 -29 29 0 197 0 197 29
29 29 29 457 0 456 0 24 -25z m1879 -1 l26 -27 0 -202 0 -202 -26 -27 -27 -26
-457 0 -457 0 -27 26 -26 27 0 202 0 202 26 27 27 26 457 0 457 0 27 -26z
m1877 -3 l29 -29 0 -197 0 -197 -29 -29 -29 -29 -457 0 -456 0 -24 25 c-25 24
-25 25 -25 230 0 205 0 206 25 230 l24 25 456 0 457 0 29 -29z m-4115 -1697
c151 -44 269 -180 295 -340 37 -224 -110 -434 -334 -480 -216 -44 -421 79
-492 295 -27 84 -18 207 22 293 72 154 214 247 376 248 44 0 103 -7 133 -16z
m1886 -3 c245 -84 359 -352 249 -586 -123 -264 -474 -322 -684 -113 -186 186
-149 513 75 654 102 65 250 83 360 45z m1929 -23 c145 -72 230 -200 237 -359
3 -65 0 -100 -13 -140 -71 -216 -276 -339 -492 -295 -331 67 -454 472 -215
713 90 91 173 123 313 120 88 -2 101 -5 170 -39z"/>
</g>
</svg>
