<?xml version="1.0" standalone="no"?>
<!DOCTYPE svg PUBLIC "-//W3C//DTD SVG 20010904//EN"
 "http://www.w3.org/TR/2001/REC-SVG-20010904/DTD/svg10.dtd">
<svg version="1.0" xmlns="http://www.w3.org/2000/svg"
 width="512.000000pt" height="512.000000pt" viewBox="0 0 512.000000 512.000000"
 preserveAspectRatio="xMidYMid meet">

<g transform="translate(0.000000,512.000000) scale(0.100000,-0.100000)"
fill="#000000" stroke="none">
<path d="M1865 4953 c-340 -44 -643 -222 -835 -490 -94 -133 -173 -305 -195
-426 -5 -27 -13 -38 -29 -41 -11 -2 -48 -10 -81 -16 -242 -49 -450 -238 -532
-485 -23 -71 -26 -96 -26 -215 -1 -118 3 -145 25 -212 39 -119 92 -204 182
-294 90 -90 176 -143 294 -182 68 -22 99 -25 265 -30 l187 -4 0 -519 0 -519
-84 0 -85 0 -24 53 c-30 66 -81 118 -150 154 -44 23 -65 27 -137 28 -101 0
-159 -23 -228 -93 -65 -65 -87 -120 -87 -222 0 -102 22 -157 87 -222 67 -67
127 -92 223 -93 66 0 90 5 136 26 70 33 125 87 156 156 l24 53 85 0 84 0 0
-375 0 -376 -25 -24 c-23 -24 -29 -25 -164 -25 l-140 0 -24 53 c-30 66 -81
118 -150 154 -44 23 -65 27 -137 28 -101 0 -159 -23 -228 -93 -65 -65 -87
-120 -87 -222 0 -102 22 -157 87 -222 67 -67 127 -92 223 -93 66 0 90 5 136
26 70 33 125 87 156 156 l24 53 141 0 c81 0 158 5 182 12 55 16 138 99 154
154 8 29 12 151 12 418 l0 376 336 0 c235 0 349 4 378 12 55 16 138 99 154
154 9 30 12 177 12 538 l0 496 160 0 160 0 0 -884 0 -885 -53 -24 c-66 -30
-118 -81 -154 -150 -23 -44 -27 -65 -27 -137 -1 -101 23 -159 92 -228 65 -65
120 -87 222 -87 102 0 157 22 222 87 69 69 93 127 92 228 0 72 -4 93 -27 137
-36 69 -88 120 -154 150 l-53 24 0 885 0 884 160 0 160 0 0 -576 c0 -424 3
-588 12 -618 16 -55 99 -138 154 -154 29 -8 143 -12 378 -12 l336 0 0 -296 c0
-204 4 -310 12 -338 16 -55 99 -138 154 -154 24 -7 101 -12 182 -12 l141 0 24
-53 c52 -115 158 -182 287 -182 127 0 227 62 287 178 23 44 27 65 27 137 1
100 -23 159 -89 225 -66 66 -125 90 -225 89 -72 0 -93 -4 -137 -27 -69 -36
-120 -88 -150 -154 l-24 -53 -140 0 c-135 0 -141 1 -164 25 l-25 24 0 296 0
295 84 0 85 0 24 -53 c30 -66 81 -118 150 -154 44 -23 65 -27 137 -27 101 -1
159 23 228 92 65 65 87 120 87 222 0 102 -22 157 -87 222 -69 69 -127 93 -228
92 -72 0 -93 -4 -137 -27 -69 -36 -120 -88 -150 -154 l-24 -53 -85 0 -84 0 0
599 0 599 188 4 c165 5 196 8 264 30 118 39 204 92 294 182 90 90 143 175 182
294 22 67 26 94 26 212 0 118 -4 145 -26 212 -39 119 -92 204 -182 294 -91 90
-176 143 -294 182 -64 20 -104 25 -228 30 l-152 5 -6 47 c-18 134 -89 265
-205 380 -95 94 -175 142 -301 181 -96 30 -280 33 -377 7 -63 -18 -167 -63
-214 -94 l-26 -17 -74 77 c-227 239 -556 379 -879 374 -52 0 -108 -3 -125 -5z
m282 -164 c238 -32 492 -172 643 -353 117 -141 216 -352 235 -501 14 -109 5
-101 93 -95 l77 5 -3 30 c-13 141 -56 294 -117 415 -20 40 -34 78 -31 85 8 21
126 74 201 90 191 40 365 -13 505 -154 87 -88 122 -148 150 -257 32 -122 24
-226 -24 -345 l-24 -59 67 -39 c36 -22 69 -37 73 -35 14 9 67 162 74 212 l7
52 106 0 c142 0 209 -13 308 -61 342 -164 418 -622 147 -893 -78 -77 -190
-138 -288 -155 -83 -15 -3489 -15 -3572 0 -32 5 -97 29 -142 51 -342 168 -416
623 -146 892 182 182 460 216 688 82 53 -31 136 -111 173 -167 l25 -38 47 26
c25 14 56 32 68 39 l22 14 -22 37 c-35 60 -142 167 -210 212 -72 47 -164 86
-237 102 -28 6 -50 16 -50 23 0 7 11 46 25 86 109 321 360 565 685 664 144 45
294 56 447 35z m-147 -2724 l0 -496 -25 -24 -24 -25 -336 0 -335 0 0 520 0
520 360 0 360 0 0 -495z m1840 -105 l0 -600 -335 0 -336 0 -24 25 -25 24 0
576 0 575 360 0 360 0 0 -600z m-3137 -374 c103 -43 128 -177 48 -257 -65 -65
-157 -65 -222 0 -124 123 13 325 174 257z m3865 -173 c50 -38 67 -70 67 -132
0 -47 -5 -64 -27 -93 -70 -92 -192 -89 -262 6 -32 43 -29 132 6 178 15 19 42
42 60 52 42 21 120 16 156 -11z m-4025 -787 c103 -43 128 -177 48 -257 -65
-65 -157 -65 -222 0 -124 123 13 325 174 257z m2083 -2 c103 -49 125 -175 45
-255 -65 -65 -157 -65 -222 0 -125 125 18 330 177 255z m2077 2 c103 -43 128
-177 48 -257 -65 -65 -157 -65 -222 0 -124 123 13 325 174 257z"/>
<path d="M786 3669 c-62 -15 -153 -68 -197 -116 -22 -24 -55 -74 -72 -111 -29
-61 -32 -76 -32 -163 0 -90 2 -99 37 -171 45 -91 103 -147 196 -191 l67 -32
288 -3 287 -3 0 80 0 81 -256 0 c-172 0 -270 4 -298 12 -86 26 -166 136 -166
228 0 115 116 240 224 240 13 0 16 13 16 80 l0 80 -27 -1 c-16 -1 -45 -5 -67
-10z"/>
<path d="M1625 3655 c-14 -13 -25 -32 -25 -42 0 -10 -18 -175 -40 -368 -21
-192 -37 -351 -35 -353 4 -5 149 -22 152 -18 1 1 7 47 13 102 18 161 0 144
150 144 150 0 132 17 150 -144 6 -55 12 -101 13 -102 3 -4 148 13 152 18 2 2
-14 161 -35 353 -22 193 -40 358 -40 368 0 10 -11 29 -25 42 -24 25 -26 25
-215 25 -189 0 -191 0 -215 -25z m309 -182 c3 -27 9 -81 12 -120 l7 -73 -113
0 -113 0 7 73 c3 39 9 93 12 120 l7 47 87 0 87 0 7 -47z"/>
<path d="M2345 3655 l-25 -24 0 -376 0 -375 80 0 80 0 0 160 0 160 215 0 c286
0 265 -19 265 240 0 189 0 191 -25 215 l-24 25 -271 0 -271 0 -24 -25z m455
-215 l0 -80 -160 0 -160 0 0 80 0 80 160 0 160 0 0 -80z"/>
<path d="M3120 3600 l0 -80 80 0 80 0 0 -240 0 -240 -80 0 -80 0 0 -80 0 -80
240 0 240 0 0 80 0 80 -80 0 -80 0 0 240 0 240 80 0 80 0 0 80 0 80 -240 0
-240 0 0 -80z"/>
</g>
</svg>
