<?xml version="1.0" standalone="no"?>
<!DOCTYPE svg PUBLIC "-//W3C//DTD SVG 20010904//EN"
 "http://www.w3.org/TR/2001/REC-SVG-20010904/DTD/svg10.dtd">
<svg version="1.0" xmlns="http://www.w3.org/2000/svg"
 width="512.000000pt" height="512.000000pt" viewBox="0 0 512.000000 512.000000"
 preserveAspectRatio="xMidYMid meet">

<g transform="translate(0.000000,512.000000) scale(0.100000,-0.100000)"
fill="#000000" stroke="none">
<path d="M1200 5027 c-49 -16 -133 -102 -148 -153 -9 -31 -12 -203 -12 -657
l0 -616 -328 -3 -328 -3 -76 -37 c-91 -45 -147 -103 -191 -196 l-32 -67 0
-1056 0 -1055 37 -76 c45 -91 103 -147 196 -191 l67 -32 432 -3 431 -3 -52
-157 -53 -157 -164 -5 c-188 -6 -214 -14 -278 -86 -51 -59 -61 -99 -61 -258
l0 -136 1200 0 1200 0 0 136 c0 160 -9 199 -64 261 -61 69 -86 77 -275 83
l-164 5 -53 157 -52 157 431 3 432 3 67 32 c92 43 151 101 194 189 31 63 37
85 42 163 l5 91 615 0 c453 0 625 3 656 12 55 16 138 99 154 154 17 59 18
3288 0 3346 -6 22 -31 62 -55 88 -78 87 96 80 -1937 79 -1283 -1 -1811 -4
-1836 -12z m3655 -172 c25 -24 25 -24 25 -240 l0 -215 -1840 0 -1840 0 0 215
c0 216 0 216 25 240 l24 25 1791 0 1791 0 24 -25z m25 -1950 l0 -1336 -25 -24
-24 -25 -616 0 -615 0 0 80 0 80 560 0 560 0 0 720 0 720 -559 0 -558 0 -5 91
c-5 78 -11 100 -42 163 -43 88 -102 146 -194 189 l-67 32 -1047 3 -1048 2 0
320 0 320 1840 0 1840 0 0 -1335z m-1606 523 c55 -16 138 -99 154 -154 9 -31
12 -237 12 -818 l0 -776 -1600 0 -1600 0 0 776 c0 581 3 787 12 818 15 51 99
137 148 153 53 17 2818 17 2874 1z m1286 -1028 l0 -560 -480 0 -480 0 0 560 0
560 480 0 480 0 0 -560z m-1120 -1016 c0 -78 -5 -154 -12 -178 -16 -55 -99
-138 -154 -154 -60 -17 -2808 -17 -2868 0 -55 16 -138 99 -154 154 -7 24 -12
100 -12 178 l0 136 1600 0 1600 0 0 -136z m-1124 -666 l52 -158 -528 0 -529 0
50 148 c27 81 51 153 54 160 3 10 94 12 426 10 l422 -3 53 -157z m539 -343
c21 -20 25 -34 25 -80 l0 -55 -1040 0 -1040 0 0 55 c0 46 4 60 25 80 l24 25
991 0 991 0 24 -25z"/>
<path d="M1360 4640 l0 -80 80 0 80 0 0 80 0 80 -80 0 -80 0 0 -80z"/>
<path d="M1680 4640 l0 -80 80 0 80 0 0 80 0 80 -80 0 -80 0 0 -80z"/>
<path d="M2000 4640 l0 -80 80 0 80 0 0 80 0 80 -80 0 -80 0 0 -80z"/>
<path d="M1360 4000 l0 -80 80 0 80 0 0 80 0 80 -80 0 -80 0 0 -80z"/>
<path d="M1680 4000 l0 -80 1520 0 1520 0 0 80 0 80 -1520 0 -1520 0 0 -80z"/>
<path d="M3760 3680 l0 -80 480 0 480 0 0 80 0 80 -480 0 -480 0 0 -80z"/>
<path d="M3760 3360 l0 -80 480 0 480 0 0 80 0 80 -480 0 -480 0 0 -80z"/>
<path d="M560 3267 c-49 -16 -133 -102 -148 -153 -17 -59 -17 -1049 0 -1108
16 -55 99 -138 154 -154 59 -17 1689 -17 1748 0 55 16 138 99 154 154 17 58
17 1049 0 1106 -6 22 -31 62 -55 88 -76 85 -21 80 -977 79 -583 -1 -852 -4
-876 -12z m1735 -172 l25 -24 0 -511 0 -511 -25 -24 -24 -25 -831 0 -831 0
-24 25 -25 24 0 511 0 511 25 24 24 25 831 0 831 0 24 -25z"/>
<path d="M1366 2592 c-86 -257 -156 -472 -156 -478 0 -10 138 -59 146 -51 7 7
314 930 314 943 0 11 -109 54 -136 54 -7 0 -76 -191 -168 -468z"/>
<path d="M870 2745 l-185 -185 188 -187 187 -188 57 58 58 57 -130 130 -130
130 128 128 c70 70 127 132 127 138 0 12 -92 104 -105 104 -6 0 -93 -83 -195
-185z"/>
<path d="M1757 2882 c-26 -26 -47 -52 -47 -57 0 -5 57 -67 127 -137 l128 -128
-130 -130 -130 -130 58 -57 57 -58 187 188 188 187 -185 185 c-102 102 -190
185 -195 185 -6 0 -32 -22 -58 -48z"/>
<path d="M2640 3200 l0 -80 320 0 320 0 0 80 0 80 -320 0 -320 0 0 -80z"/>
<path d="M2640 2880 l0 -80 320 0 320 0 0 80 0 80 -320 0 -320 0 0 -80z"/>
<path d="M2640 2560 l0 -80 320 0 320 0 0 80 0 80 -320 0 -320 0 0 -80z"/>
<path d="M2640 2240 l0 -80 320 0 320 0 0 80 0 80 -320 0 -320 0 0 -80z"/>
<path d="M2800 1920 l0 -80 80 0 80 0 0 80 0 80 -80 0 -80 0 0 -80z"/>
<path d="M3120 1920 l0 -80 80 0 80 0 0 80 0 80 -80 0 -80 0 0 -80z"/>
<path d="M1440 1280 l0 -80 80 0 80 0 0 80 0 80 -80 0 -80 0 0 -80z"/>
<path d="M1760 1280 l0 -80 80 0 80 0 0 80 0 80 -80 0 -80 0 0 -80z"/>
<path d="M2080 1280 l0 -80 80 0 80 0 0 80 0 80 -80 0 -80 0 0 -80z"/>
</g>
</svg>
