<?xml version="1.0" standalone="no"?>
<!DOCTYPE svg PUBLIC "-//W3C//DTD SVG 20010904//EN"
 "http://www.w3.org/TR/2001/REC-SVG-20010904/DTD/svg10.dtd">
<svg version="1.0" xmlns="http://www.w3.org/2000/svg"
 width="512.000000pt" height="512.000000pt" viewBox="0 0 512.000000 512.000000"
 preserveAspectRatio="xMidYMid meet">

<g transform="translate(0.000000,512.000000) scale(0.100000,-0.100000)"
fill="#000000" stroke="none">
<path d="M1530 5105 c-145 -36 -261 -147 -306 -294 -11 -36 -14 -134 -14 -463
l0 -417 -82 -43 c-315 -163 -535 -468 -590 -817 l-12 -81 -128 0 -128 0 0 -85
0 -84 127 -3 127 -3 17 -100 c85 -479 449 -835 928 -909 l76 -12 3 -127 3
-127 84 0 85 0 0 128 0 128 88 13 c233 33 451 148 624 329 155 163 254 357
288 567 7 39 14 80 16 93 4 21 8 22 135 22 l130 0 -3 83 -3 82 -130 5 c-130 5
-130 5 -133 30 -18 176 -89 365 -192 514 -61 88 -199 224 -289 285 -126 86
-322 161 -466 179 l-60 7 -5 130 -5 130 -82 3 -82 3 -3 -133 -3 -133 -63 -7
c-34 -4 -72 -10 -82 -13 -20 -6 -20 -1 -20 224 l0 231 680 0 680 0 0 85 0 85
-680 0 -680 0 0 73 c0 59 5 83 26 126 32 64 99 116 169 131 35 8 345 10 1025
8 l976 -3 53 -28 53 -27 46 51 c68 75 68 73 14 108 -111 71 -26 66 -1147 68
-820 1 -1020 -1 -1065 -12z m20 -1355 l0 -80 85 0 85 0 0 81 0 82 55 -7 c86
-10 231 -61 324 -113 102 -58 243 -188 306 -283 81 -121 132 -252 154 -392 l8
-48 -83 0 -84 0 0 -85 0 -85 80 0 80 0 0 -39 c0 -50 -43 -198 -80 -279 -40
-87 -118 -196 -190 -267 l-60 -59 0 40 c0 133 -63 298 -152 399 -30 35 -137
120 -160 128 -8 2 3 21 30 51 150 163 144 410 -13 575 -140 147 -362 172 -533
62 -73 -48 -117 -99 -156 -181 -29 -60 -31 -73 -31 -175 0 -103 2 -114 31
-176 18 -37 48 -84 68 -106 20 -22 36 -43 36 -46 0 -3 -19 -16 -43 -30 -54
-32 -142 -122 -184 -189 -42 -67 -72 -156 -82 -252 -5 -43 -12 -80 -16 -84 -4
-4 -34 22 -67 58 -130 140 -205 284 -243 463 -24 112 -27 107 65 107 l80 0 0
85 0 85 -81 0 -81 0 7 53 c18 133 98 318 189 435 90 117 232 227 369 284 83
36 199 67 250 67 l37 1 0 -80z m185 -444 c197 -83 197 -378 0 -467 -87 -40
-221 -13 -287 57 -82 88 -91 238 -19 330 71 91 200 124 306 80z m76 -702 c121
-57 213 -178 239 -313 5 -30 10 -93 10 -141 l0 -86 -66 -28 c-69 -28 -213 -66
-251 -66 -22 0 -23 4 -23 80 l0 80 -85 0 -85 0 0 -80 c0 -74 -2 -80 -20 -80
-44 0 -173 32 -242 60 -40 17 -74 30 -75 30 -2 0 -3 53 -3 118 0 161 26 237
114 331 91 97 179 132 321 128 88 -2 108 -6 166 -33z"/>
<path d="M60 4767 c-48 -24 -50 -38 -50 -415 0 -370 3 -400 45 -416 9 -3 222
-6 474 -6 l458 0 21 23 c22 23 22 27 22 394 0 204 -3 379 -6 388 -17 43 -40
45 -501 45 -331 0 -444 -3 -463 -13z m800 -412 l0 -255 -340 0 -340 0 0 255 0
255 340 0 340 0 0 -255z"/>
<path d="M350 4355 l0 -85 170 0 170 0 0 85 0 85 -170 0 -170 0 0 -85z"/>
<path d="M2960 4767 c-50 -25 -50 -26 -50 -585 0 -576 -1 -569 61 -591 23 -8
308 -11 966 -11 999 0 986 -1 1012 48 8 14 11 192 11 556 l0 535 -24 28 -24
28 -964 2 c-760 2 -968 0 -988 -10z m1828 -584 l-3 -428 -850 0 -850 0 -3 428
-2 427 855 0 855 0 -2 -427z"/>
<path d="M3257 4433 c-4 -3 -7 -42 -7 -85 l0 -78 170 0 170 0 0 85 0 85 -163
0 c-90 0 -167 -3 -170 -7z"/>
<path d="M3770 4355 l0 -85 425 0 425 0 0 85 0 85 -425 0 -425 0 0 -85z"/>
<path d="M3257 4093 c-4 -3 -7 -42 -7 -85 l0 -78 685 0 685 0 0 85 0 85 -678
0 c-373 0 -682 -3 -685 -7z"/>
<path d="M3771 2978 l1 -433 -232 -205 -231 -205 -83 -16 c-238 -47 -421 -227
-471 -466 -8 -38 -15 -120 -15 -184 0 -172 -9 -192 -133 -295 -54 -45 -44
-114 20 -141 57 -23 703 -14 783 12 226 71 380 239 428 467 l18 83 613 695
c337 382 621 711 632 732 23 45 26 181 6 231 -20 48 -63 94 -116 125 -40 24
-56 27 -131 27 -75 0 -91 -3 -130 -27 -25 -15 -211 -174 -415 -354 l-370 -328
-3 357 -2 357 -85 0 -85 0 1 -432z m1152 238 c29 -27 42 -65 33 -99 -5 -21
-1175 -1358 -1194 -1365 -14 -4 -295 285 -288 297 8 12 1244 1105 1311 1158
50 41 100 44 138 9z m-1431 -1443 l187 -188 -9 -47 c-34 -174 -182 -311 -365
-338 -81 -11 -435 -14 -435 -2 1 4 9 32 20 62 15 42 19 83 20 175 0 140 18
235 57 306 31 58 123 147 179 174 40 19 117 43 144 44 8 1 99 -83 202 -186z"/>
<path d="M1210 1495 l0 -215 -571 0 -571 0 -29 -29 -29 -29 0 -362 c0 -369 2
-389 39 -417 12 -10 239 -12 987 -13 961 0 970 0 992 20 12 11 24 31 27 43 3
12 5 183 3 380 l-3 359 -28 24 -28 24 -309 0 -310 0 -2 213 -3 212 -82 3 -83
3 0 -216z m680 -640 l0 -255 -855 0 -855 0 0 255 0 255 855 0 855 0 0 -255z"/>
<path d="M350 855 l0 -85 215 0 215 0 0 85 0 85 -215 0 -215 0 0 -85z"/>
<path d="M950 855 l0 -85 385 0 385 0 0 85 0 85 -385 0 -385 0 0 -85z"/>
<path d="M3768 1023 l-3 -168 -767 -3 -768 -2 0 -85 0 -85 771 0 771 0 -4
-153 c-4 -143 -6 -157 -32 -210 -15 -31 -44 -70 -64 -87 -75 -63 -40 -61
-1123 -58 -1109 3 -1021 -3 -1101 82 l-41 43 -69 -39 c-37 -22 -68 -45 -68
-52 0 -22 88 -111 141 -143 109 -65 72 -63 1150 -63 618 0 996 4 1030 10 175
33 316 186 340 368 4 37 8 235 9 440 l0 372 -85 0 -85 0 -2 -167z"/>
<path d="M2490 425 l0 -85 85 0 85 0 0 85 0 85 -85 0 -85 0 0 -85z"/>
</g>
</svg>
